<?xml version="1.0" encoding="UTF-8"?>
<svg id="Layer_1" data-name="Layer 1" xmlns="http://www.w3.org/2000/svg" viewBox="0 0 43.68 595.5">
  <defs>
    <style>
      .cls-1 {
        fill: #fff;
        stroke-width: 0px;
      }
    </style>
  </defs>
  <path class="cls-2" d="M38.3,595.05c-3.14-.45-6.22-.45-9.35,0,5.04-5.26,7.45-17.25,7.45-27.5,0-8.34-1.85-11.82-5.54-11.82-4.93,0-5.49,5.26-6.55,17.75-1.23,13.72-3.42,22.01-11.87,22.01s-12.43-7.45-12.43-22.68c0-10.7,1.46-17.08,3.36-24.98,3.02.45,5.88.45,8.74,0-2.69,6.5-5.43,15.12-5.43,25.31,0,8.62,1.74,12.26,5.49,12.26,4.48,0,5.66-4.48,6.55-15.9,1.12-14.39,3.08-23.86,12.1-23.86,8.29,0,12.26,7.62,12.26,22.79,0,10.25-2.13,19.54-4.76,26.6Z"/>
  <path class="cls-2" d="M42.45,537.6c-10.47-.67-31.25-.67-41.72,0,.5-3.58.56-7.17,0-10.53,10.47.67,31.36.67,41.72-.11v10.64Z"/>
  <path class="cls-2" d="M42.45,517.21c-10.47-.67-31.3-.67-41.72,0,.17-9.63-.17-15.51-.17-24.47,0-15.62,3.86-22.96,12.21-22.96,10.64,0,12.43,12.66,12.43,18.42h.73c1.9-11.09,10.36-17.3,16.52-20.16v13.27c-10.53,1.9-14.67,7.17-15.51,18.7-.17,2.69-.22,4.93-.22,7.28,7.62-.11,11.37-.28,15.74-.62v10.53ZM21.28,494.7c0-9.52-2.02-14.67-7.5-14.67-5.1,0-6.89,5.04-6.89,12.99,0,5.38.17,10.81.17,14.17,4.31.11,8.85.17,13.83.17.11-3.86.39-8.34.39-12.66Z"/>
  <path class="cls-2" d="M42.45,460.99c-10.47-.67-31.25-.67-41.72,0,.5-3.58.56-7.17,0-10.53,10.47.67,31.36.67,41.72-.11v10.64Z"/>
  <path class="cls-2" d="M43.68,416.47c0,16.18-8.18,24.92-22.01,24.92-8.51,0-15.85.11-20.94.45.5-3.36.56-7.28,0-10.42,5.1.34,12.21.45,21.17.45,9.69,0,15.51-5.21,15.51-15.4s-5.82-15.34-15.51-15.34c-8.96,0-16.07.06-21.17.39.5-3.36.56-7.28,0-10.42,5.1.28,13.33.39,20.94.39,13.83,0,22.01,9.3,22.01,24.98Z"/>
  <path class="cls-2" d="M38.3,383.48c-3.14-.45-6.22-.45-9.35,0,5.04-5.26,7.45-17.25,7.45-27.5,0-8.34-1.85-11.82-5.54-11.82-4.93,0-5.49,5.26-6.55,17.75-1.23,13.72-3.42,22.01-11.87,22.01s-12.43-7.45-12.43-22.68c0-10.7,1.46-17.08,3.36-24.98,3.02.45,5.88.45,8.74,0-2.69,6.5-5.43,15.12-5.43,25.31,0,8.62,1.74,12.26,5.49,12.26,4.48,0,5.66-4.48,6.55-15.9,1.12-14.39,3.08-23.86,12.1-23.86,8.29,0,12.26,7.62,12.26,22.79,0,10.25-2.13,19.54-4.76,26.6Z"/>
  <path class="cls-2" d="M42.45,293.49c-8.74-.56-23.91-.62-35.39-.34.11,8.23.62,14.28,1.51,20.1-2.63-.45-5.21-.45-7.84,0,.45-18.54.45-31.7,0-50.18,2.63.45,5.21.45,7.84,0-.9,5.88-1.4,11.93-1.51,20.22,11.54.28,26.66.11,35.39-.45v10.64Z"/>
  <path class="cls-2" d="M42.45,227.36c-2.8,1.06-5.77,2.13-8.74,3.3-.22,7.22-.22,17.19-.06,24.47,3.08,1.29,6.1,2.46,8.79,3.58v10.98c-13.89-6.78-27.83-13.05-41.72-18.93.5-4.03.73-11.82,0-15.85,13.89-5.88,27.83-12.26,41.72-19.04v11.48ZM27.94,232.96c-7.73,3.08-15.46,6.5-22.06,10.08,4.26,2.3,13.1,6.05,22.06,9.74.17-5.99.17-13.83,0-19.82Z"/>
  <path class="cls-2" d="M42.45,210.5c-13.89-.45-27.83-.45-41.72,0,.5-3.58.62-7.34,0-10.53,7.9.56,25.31.67,35.45.39,0-8.23-.84-26.49-2.13-34.05,3.36.22,5.6.22,8.4,0v44.18Z"/>
  <path class="cls-2" d="M42.45,158.93c-10.64-.67-31.42-.67-41.72,0,.56-6.83.95-34.66.17-44.91,2.74.22,5.6.22,8.4,0-1.51,7.84-2.41,24.19-2.3,34.78,3.98.11,7.95.17,11.93.11.17-10.42-.28-23.35-.78-30.91,2.3.22,4.82.22,7.06,0-.45,7.62-.84,20.5-.62,30.91,3.75,0,7.67,0,11.54-.22.11-10.64-.78-26.88-2.24-34.66,2.8.22,5.77.22,8.57,0v44.91Z"/>
  <path class="cls-2" d="M42.45,69.1c-11.48,8.79-22.85,17.92-33.94,27.44,11.26.17,22.68,0,33.94-.5v10.08c-13.89-.45-27.83-.45-41.72,0,.45-3.7.56-10.19,0-13.89,11.59-8.62,23.02-17.64,34.27-27.05-11.42-.17-22.9-.06-34.27.5.5-3.53.56-6.83,0-9.97,13.89.39,27.83.34,41.72-.17v13.55Z"/>
  <path class="cls-2" d="M42.45,30.41c-8.74-.56-23.91-.62-35.39-.34.11,8.23.62,14.28,1.51,20.1-2.63-.45-5.21-.45-7.84,0C1.18,31.64,1.18,18.48.73,0c2.63.45,5.21.45,7.84,0-.9,5.88-1.4,11.93-1.51,20.22,11.54.28,26.66.11,35.39-.45v10.64Z"/>
</svg>